<svg xmlns="http://www.w3.org/2000/svg" width="32" height="32" id="website"><path d="M2.344 2A.5.5 0 0 0 2 2.5v27a.5.5 0 0 0 .5.5h27a.5.5 0 0 0 .5-.5v-27a.5.5 0 0 0-.5-.5h-27a.5.5 0 0 0-.156 0zM3 3h26v3H3V3zm1.5 1a.5.5 0 1 0 0 1 .5.5 0 0 0 0-1zm2 0a.5.5 0 1 0 0 1 .5.5 0 0 0 0-1zm2 0a.5.5 0 1 0 0 1 .5.5 0 0 0 0-1zM3 7h26v22H3V7zm1.5 1a.5.5 0 1 0 0 1 .5.5 0 0 0 0-1zM7 8v1h5V8H7zm6 0v1h2V8h-2zm3 0v1h10V8H16zM4.5 10a.5.5 0 1 0 0 1 .5.5 0 0 0 0-1zM7 10v1h1v-1H7zm2 0v1h8v-1H9zm9 0v1h1v-1h-1zm2 0v1h4v-1h-4zM4.5 12a.5.5 0 1 0 0 1 .5.5 0 0 0 0-1zM7 12v1h8v-1H7zm-2.5 2a.5.5 0 1 0 0 1 .5.5 0 0 0 0-1zM7 14v1h2v-1H7zm3 0v1h7v-1h-7zm-5.5 2a.5.5 0 1 0 0 1 .5.5 0 0 0 0-1zm6.5 0v1h4v-1h-4zm-6.5 2a.5.5 0 1 0 0 1 .5.5 0 0 0 0-1zm6.5 0v1h6v-1h-6zm7 0v1h1v-1h-1zM4.5 20a.5.5 0 1 0 0 1 .5.5 0 0 0 0-1zm6.5 0v1h6v-1h-6zm7 0v1h1v-1h-1zM4.5 22a.5.5 0 1 0 0 1 .5.5 0 0 0 0-1zm6.5 0v1h2v-1h-2zm-6.5 2a.5.5 0 1 0 0 1 .5.5 0 0 0 0-1zM7 24v1h8v-1H7zm9 0v1h2v-1h-2zM4.5 26a.5.5 0 1 0 0 1 .5.5 0 0 0 0-1zM7 26v1h5v-1H7zm6 0v1h8v-1h-8z" color="#000" font-family="Sans" font-weight="400" overflow="visible" style="text-indent:0;text-align:start;line-height:normal;text-transform:none;block-progression:tb;marker:none;-inkscape-font-specification:Sans"></path></svg>